<svg xmlns="http://www.w3.org/2000/svg" viewBox="0 0 320 200" role="img" aria-label=",E9J) 'D2'/">
  <!--
    %9'/) 13E *B1J(J) D49'1 ,E9J) 'D2'/ (SVG) (#DH'F 'DGHJ).
    D'9*E'/ 'D49'1 'D13EJ: '3*(/D G0' 'DEDA ('DEDA 'D#5DJ (FA3 'D'3E.
  -->
  <defs>
    <style>
      .txt { font-family: Tajawal, "Segoe UI", sans-serif; }
    </style>
  </defs>

  <!-- 'DH1B) 'D5A1'! #3AD 'D4CD -->
  <path d="M212 142 Q258 190 316 138 Q306 196 250 194 Q216 188 212 142 Z" fill="#f2b824"/>

  <!-- 'D4CD 'D9F'(J (B71)/H1B)) -->
  <path d="M212 52 Q212 12 252 12 L276 12 Q316 12 316 52 L316 96 Q316 148 258 148 L244 148 Q212 148 212 112 Z" fill="#8b1538"/>

  <!-- 3F(D) 'DBE- 'D(J6'! -->
  <g stroke="#ffffff" fill="#ffffff">
    <line x1="264" y1="34" x2="264" y2="132" stroke-width="4" stroke-linecap="round"/>
    <ellipse cx="264" cy="30" rx="6" ry="12"/>
    <ellipse cx="251" cy="52" rx="6" ry="12" transform="rotate(35 251 52)"/>
    <ellipse cx="277" cy="52" rx="6" ry="12" transform="rotate(-35 277 52)"/>
    <ellipse cx="249" cy="76" rx="6" ry="12" transform="rotate(35 249 76)"/>
    <ellipse cx="279" cy="76" rx="6" ry="12" transform="rotate(-35 279 76)"/>
    <ellipse cx="249" cy="100" rx="6" ry="12" transform="rotate(35 249 100)"/>
    <ellipse cx="279" cy="100" rx="6" ry="12" transform="rotate(-35 279 100)"/>
  </g>

  <!-- «,E9J)» /'.D %7'1 9F'(J -->
  <rect x="78" y="26" width="112" height="44" rx="14" fill="#8b1538"/>
  <text x="134" y="57" text-anchor="middle" class="txt" font-size="26" font-weight="700" fill="#ffffff">,E9J)</text>

  <!-- «'D2'/» -->
  <text x="134" y="150" text-anchor="middle" class="txt" font-size="64" font-weight="800" fill="#706f6f">'D2'/</text>
</svg>
